<svg width="20" height="20" viewBox="0 0 20 20" fill="none" xmlns="http://www.w3.org/2000/svg">
<path fill-rule="evenodd" clip-rule="evenodd" d="M1.04169 7.5C1.04169 4.3934 3.56009 1.875 6.66669 1.875H10C13.1066 1.875 15.625 4.3934 15.625 7.5C15.625 10.6066 13.1066 13.125 10 13.125H8.33335C7.98818 13.125 7.70835 12.8452 7.70835 12.5C7.70835 12.1548 7.98818 11.875 8.33335 11.875H10C12.4163 11.875 14.375 9.91625 14.375 7.5C14.375 5.08375 12.4163 3.125 10 3.125H6.66669C4.25044 3.125 2.29169 5.08375 2.29169 7.5C2.29169 8.62092 2.71241 9.64208 3.40555 10.4165C3.63576 10.6737 3.61387 11.0688 3.35666 11.299C3.09946 11.5292 2.70434 11.5074 2.47413 11.2502C1.58381 10.2554 1.04169 8.94026 1.04169 7.5ZM10 8.125C7.58378 8.125 5.62502 10.0838 5.62502 12.5C5.62502 14.9162 7.58378 16.875 10 16.875H13.3334C15.7496 16.875 17.7084 14.9162 17.7084 12.5C17.7084 11.3791 17.2876 10.3579 16.5945 9.58349C16.3643 9.32628 16.3862 8.93116 16.6434 8.70096C16.9006 8.47075 17.2957 8.49264 17.5259 8.74985C18.4162 9.7446 18.9584 11.0597 18.9584 12.5C18.9584 15.6066 16.44 18.125 13.3334 18.125H10C6.89342 18.125 4.37502 15.6066 4.37502 12.5C4.37502 9.3934 6.89342 6.875 10 6.875H11.6667C12.0119 6.875 12.2917 7.15482 12.2917 7.5C12.2917 7.84518 12.0119 8.125 11.6667 8.125H10Z" fill="#2B83FE"/>
</svg>
